<svg width="496" height="495" viewBox="0 0 496 495" fill="none" xmlns="http://www.w3.org/2000/svg">
<path d="M212.084 84H83.5842L83.0845 210C81.3375 215.521 78.9687 216.971 72.5845 217C61.1559 212.92 53.8743 211.35 39.0845 210C21.0787 211.012 13.5384 215.708 4.08436 230.5C1.2863 238.077 0.761289 242.349 1.08423 250C3.20885 271.141 11.5651 278.194 35.0842 285C50.1873 284.591 58.5091 283.072 73.0842 278C80.1816 278.164 82.4929 279.78 84.0842 285V411H211.084C215.893 413.056 216.981 415.287 217.084 420.5L211.084 449C210.896 463.879 212.899 471.463 222.084 483C229.234 492.009 236.14 492.719 248.3 493.971L248.584 494C266.893 492.812 274.902 487.118 284.084 468C286.553 451.485 286.289 442.268 279.084 426C277.138 416.631 278.712 413.367 286.084 411H412.084V283C415.888 277.455 418.994 276.861 425.584 278.5C470.895 289.473 485.696 282.83 495.084 250.5C487.854 203.209 465.682 207.822 425.584 217C418.873 218.333 415.732 217.035 411.584 210V84H284.084C278.553 79.7266 277.278 76.7204 279.084 70C291.909 24.1949 285.167 8.72621 246.084 1C205.659 10.8712 206.988 30.5796 216.584 70C217.918 77.7253 216.645 80.581 212.084 84Z" fill="black" stroke="black"/>
</svg>
